<svg width="20" height="20" viewBox="0 0 20 20" fill="none" xmlns="http://www.w3.org/2000/svg">
<path d="M2.38477 3.59999H17.6155V14.7692H2.38477V3.59999Z" stroke="#0FEFFD" stroke-width="1.5" stroke-linecap="round" stroke-linejoin="round"/>
<path d="M2.38477 3.59999H17.6155V14.7692H2.38477V3.59999Z" stroke="black" stroke-opacity="0.2" stroke-width="1.5" stroke-linecap="round" stroke-linejoin="round"/>
<path d="M12.5391 3.59999V14.7692" stroke="#0FEFFD" stroke-width="1.5" stroke-linecap="round" stroke-linejoin="round"/>
<path d="M12.5391 3.59999V14.7692" stroke="black" stroke-opacity="0.2" stroke-width="1.5" stroke-linecap="round" stroke-linejoin="round"/>
<path d="M14.5693 9.69229H15.5847" stroke="#0FEFFD" stroke-width="1.5" stroke-linecap="round" stroke-linejoin="round"/>
<path d="M14.5693 9.69229H15.5847" stroke="black" stroke-opacity="0.2" stroke-width="1.5" stroke-linecap="round" stroke-linejoin="round"/>
<path d="M14.5693 11.7231H15.5847" stroke="#0FEFFD" stroke-width="1.5" stroke-linecap="round" stroke-linejoin="round"/>
<path d="M14.5693 11.7231H15.5847" stroke="black" stroke-opacity="0.2" stroke-width="1.5" stroke-linecap="round" stroke-linejoin="round"/>
<path d="M15.0771 6.89999C15.1273 6.89999 15.1764 6.91488 15.2181 6.94277C15.2599 6.97067 15.2924 7.01031 15.3116 7.0567C15.3308 7.10308 15.3359 7.15412 15.3261 7.20336C15.3163 7.2526 15.2921 7.29784 15.2566 7.33334C15.2211 7.36884 15.1759 7.39301 15.1266 7.40281C15.0774 7.4126 15.0263 7.40758 14.9799 7.38836C14.9336 7.36915 14.8939 7.33661 14.866 7.29487C14.8381 7.25312 14.8232 7.20405 14.8232 7.15384C14.8232 7.08652 14.85 7.02195 14.8976 6.97434C14.9452 6.92674 15.0098 6.89999 15.0771 6.89999" stroke="#0FEFFD" stroke-width="1.5" stroke-linecap="round" stroke-linejoin="round"/>
<path d="M15.0771 6.89999C15.1273 6.89999 15.1764 6.91488 15.2181 6.94277C15.2599 6.97067 15.2924 7.01031 15.3116 7.0567C15.3308 7.10308 15.3359 7.15412 15.3261 7.20336C15.3163 7.2526 15.2921 7.29784 15.2566 7.33334C15.2211 7.36884 15.1759 7.39301 15.1266 7.40281C15.0774 7.4126 15.0263 7.40758 14.9799 7.38836C14.9336 7.36915 14.8939 7.33661 14.866 7.29487C14.8381 7.25312 14.8232 7.20405 14.8232 7.15384C14.8232 7.08652 14.85 7.02195 14.8976 6.97434C14.9452 6.92674 15.0098 6.89999 15.0771 6.89999" stroke="black" stroke-opacity="0.2" stroke-width="1.5" stroke-linecap="round" stroke-linejoin="round"/>
<path d="M3.40039 16.8L5.43116 14.7692" stroke="#0FEFFD" stroke-width="1.5" stroke-linecap="round" stroke-linejoin="round"/>
<path d="M3.40039 16.8L5.43116 14.7692" stroke="black" stroke-opacity="0.2" stroke-width="1.5" stroke-linecap="round" stroke-linejoin="round"/>
<path d="M16.6001 16.8L14.5693 14.7692" stroke="#0FEFFD" stroke-width="1.5" stroke-linecap="round" stroke-linejoin="round"/>
<path d="M16.6001 16.8L14.5693 14.7692" stroke="black" stroke-opacity="0.2" stroke-width="1.5" stroke-linecap="round" stroke-linejoin="round"/>
</svg>
