<svg width="18" height="16" viewBox="0 0 18 16" fill="none" xmlns="http://www.w3.org/2000/svg">
<path d="M1.38452 1.59999H16.6153V12.7692H1.38452V1.59999Z" stroke="white" stroke-width="1.5" stroke-linecap="round" stroke-linejoin="round"/>
<path d="M11.5383 1.59999V12.7692" stroke="white" stroke-width="1.5" stroke-linecap="round" stroke-linejoin="round"/>
<path d="M13.5691 7.69229H14.5845" stroke="white" stroke-width="1.5" stroke-linecap="round" stroke-linejoin="round"/>
<path d="M13.5691 9.72307H14.5845" stroke="white" stroke-width="1.5" stroke-linecap="round" stroke-linejoin="round"/>
<path d="M14.0768 4.89999C14.1271 4.89999 14.1761 4.91488 14.2179 4.94277C14.2596 4.97067 14.2922 5.01031 14.3114 5.0567C14.3306 5.10308 14.3356 5.15412 14.3258 5.20336C14.316 5.2526 14.2918 5.29784 14.2563 5.33334C14.2208 5.36884 14.1756 5.39301 14.1264 5.40281C14.0771 5.4126 14.0261 5.40758 13.9797 5.38836C13.9333 5.36915 13.8937 5.33661 13.8658 5.29487C13.8379 5.25312 13.823 5.20405 13.823 5.15384C13.823 5.08652 13.8497 5.02195 13.8973 4.97434C13.945 4.92674 14.0095 4.89999 14.0768 4.89999" stroke="white" stroke-width="1.5" stroke-linecap="round" stroke-linejoin="round"/>
<path d="M2.3999 14.8L4.43067 12.7692" stroke="white" stroke-width="1.5" stroke-linecap="round" stroke-linejoin="round"/>
<path d="M15.5999 14.8L13.5691 12.7692" stroke="white" stroke-width="1.5" stroke-linecap="round" stroke-linejoin="round"/>
</svg>
