<svg width="20" height="20" viewBox="0 0 20 20" fill="none" xmlns="http://www.w3.org/2000/svg">
<path d="M2 18V2" stroke="white" stroke-width="1.5" stroke-linecap="round" stroke-linejoin="round"/>
<path d="M18 2V18" stroke="white" stroke-width="1.5" stroke-linecap="round" stroke-linejoin="round"/>
<path d="M6.2666 2H13.7333V8.4H6.2666V2Z" stroke="white" stroke-width="1.5" stroke-linecap="round" stroke-linejoin="round"/>
<path d="M6.2666 11.6H13.7333V18H6.2666V11.6Z" stroke="white" stroke-width="1.5" stroke-linecap="round" stroke-linejoin="round"/>
<path d="M4.39954 3.60001C4.39954 3.65275 4.3839 3.70431 4.3546 3.74816C4.3253 3.79202 4.28365 3.82619 4.23493 3.84638C4.1862 3.86656 4.13258 3.87184 4.08085 3.86155C4.02913 3.85126 3.98161 3.82587 3.94432 3.78857C3.90702 3.75128 3.88162 3.70376 3.87133 3.65203C3.86105 3.60031 3.86633 3.54669 3.88651 3.49796C3.90669 3.44923 3.94087 3.40759 3.98473 3.37828C4.02858 3.34898 4.08014 3.33334 4.13288 3.33334C4.2036 3.33334 4.27143 3.36144 4.32144 3.41145C4.37145 3.46146 4.39954 3.52929 4.39954 3.60001Z" stroke="white" stroke-width="1.5" stroke-linecap="round" stroke-linejoin="round"/>
<path d="M4.39954 7.86667C4.39954 7.91941 4.3839 7.97097 4.3546 8.01482C4.3253 8.05868 4.28365 8.09286 4.23493 8.11304C4.1862 8.13322 4.13258 8.1385 4.08085 8.12822C4.02913 8.11793 3.98161 8.09253 3.94432 8.05523C3.90702 8.01794 3.88162 7.97043 3.87133 7.9187C3.86105 7.86697 3.86633 7.81335 3.88651 7.76462C3.90669 7.7159 3.94087 7.67425 3.98473 7.64495C4.02858 7.61565 4.08014 7.60001 4.13288 7.60001C4.2036 7.60001 4.27143 7.6281 4.32144 7.67811C4.37145 7.72812 4.39954 7.79595 4.39954 7.86667Z" stroke="white" stroke-width="1.5" stroke-linecap="round" stroke-linejoin="round"/>
<path d="M4.39954 12.1333C4.39954 12.1861 4.3839 12.2376 4.3546 12.2815C4.3253 12.3253 4.28365 12.3595 4.23493 12.3797C4.1862 12.3999 4.13258 12.4052 4.08085 12.3949C4.02913 12.3846 3.98161 12.3592 3.94432 12.3219C3.90702 12.2846 3.88162 12.2371 3.87133 12.1854C3.86105 12.1336 3.86633 12.08 3.88651 12.0313C3.90669 11.9826 3.94087 11.9409 3.98473 11.9116C4.02858 11.8823 4.08014 11.8667 4.13288 11.8667C4.2036 11.8667 4.27143 11.8948 4.32144 11.9448C4.37145 11.9948 4.39954 12.0626 4.39954 12.1333Z" stroke="white" stroke-width="1.5" stroke-linecap="round" stroke-linejoin="round"/>
<path d="M4.39954 16.4C4.39954 16.4527 4.3839 16.5043 4.3546 16.5482C4.3253 16.592 4.28365 16.6262 4.23493 16.6464C4.1862 16.6665 4.13258 16.6718 4.08085 16.6615C4.02913 16.6513 3.98161 16.6259 3.94432 16.5886C3.90702 16.5513 3.88162 16.5037 3.87133 16.452C3.86105 16.4003 3.86633 16.3467 3.88651 16.2979C3.90669 16.2492 3.94087 16.2076 3.98473 16.1783C4.02858 16.149 4.08014 16.1333 4.13288 16.1333C4.2036 16.1333 4.27143 16.1614 4.32144 16.2114C4.37145 16.2614 4.39954 16.3293 4.39954 16.4Z" stroke="white" stroke-width="1.5" stroke-linecap="round" stroke-linejoin="round"/>
<path d="M16.1329 3.60001C16.1329 3.65275 16.1173 3.70431 16.088 3.74816C16.0587 3.79202 16.0171 3.82619 15.9683 3.84638C15.9196 3.86656 15.866 3.87184 15.8143 3.86155C15.7625 3.85126 15.715 3.82587 15.6777 3.78857C15.6404 3.75128 15.615 3.70376 15.6047 3.65203C15.5944 3.60031 15.5997 3.54669 15.6199 3.49796C15.6401 3.44923 15.6743 3.40759 15.7181 3.37828C15.762 3.34898 15.8135 3.33334 15.8663 3.33334C15.937 3.33334 16.0048 3.36144 16.0548 3.41145C16.1048 3.46146 16.1329 3.52929 16.1329 3.60001Z" stroke="white" stroke-width="1.5" stroke-linecap="round" stroke-linejoin="round"/>
<path d="M16.1329 7.86667C16.1329 7.91941 16.1173 7.97097 16.088 8.01482C16.0587 8.05868 16.0171 8.09286 15.9683 8.11304C15.9196 8.13322 15.866 8.1385 15.8143 8.12822C15.7625 8.11793 15.715 8.09253 15.6777 8.05523C15.6404 8.01794 15.615 7.97043 15.6047 7.9187C15.5944 7.86697 15.5997 7.81335 15.6199 7.76462C15.6401 7.7159 15.6743 7.67425 15.7181 7.64495C15.762 7.61565 15.8135 7.60001 15.8663 7.60001C15.937 7.60001 16.0048 7.6281 16.0548 7.67811C16.1048 7.72812 16.1329 7.79595 16.1329 7.86667Z" stroke="white" stroke-width="1.5" stroke-linecap="round" stroke-linejoin="round"/>
<path d="M16.1329 12.1333C16.1329 12.1861 16.1173 12.2376 16.088 12.2815C16.0587 12.3253 16.0171 12.3595 15.9683 12.3797C15.9196 12.3999 15.866 12.4052 15.8143 12.3949C15.7625 12.3846 15.715 12.3592 15.6777 12.3219C15.6404 12.2846 15.615 12.2371 15.6047 12.1854C15.5944 12.1336 15.5997 12.08 15.6199 12.0313C15.6401 11.9826 15.6743 11.9409 15.7181 11.9116C15.762 11.8823 15.8135 11.8667 15.8663 11.8667C15.937 11.8667 16.0048 11.8948 16.0548 11.9448C16.1048 11.9948 16.1329 12.0626 16.1329 12.1333Z" stroke="white" stroke-width="1.5" stroke-linecap="round" stroke-linejoin="round"/>
<path d="M16.1329 16.4C16.1329 16.4527 16.1173 16.5043 16.088 16.5482C16.0587 16.592 16.0171 16.6262 15.9683 16.6464C15.9196 16.6665 15.866 16.6718 15.8143 16.6615C15.7625 16.6513 15.715 16.6259 15.6777 16.5886C15.6404 16.5513 15.615 16.5037 15.6047 16.452C15.5944 16.4003 15.5997 16.3467 15.6199 16.2979C15.6401 16.2492 15.6743 16.2076 15.7181 16.1783C15.762 16.149 15.8135 16.1333 15.8663 16.1333C15.937 16.1333 16.0048 16.1614 16.0548 16.2114C16.1048 16.2614 16.1329 16.3293 16.1329 16.4Z" stroke="white" stroke-width="1.5" stroke-linecap="round" stroke-linejoin="round"/>
</svg>
