<svg width="56" height="56" viewBox="0 0 56 56" fill="none" xmlns="http://www.w3.org/2000/svg">
<g clip-path="url(#clip0_772_1821)">
<g filter="url(#filter0_d_772_1821)">
<path fill-rule="evenodd" clip-rule="evenodd" d="M13.3806 9.2862V46.0584C13.3805 47.1676 13.8903 48.1952 14.723 48.7648C15.5558 49.3344 16.5892 49.3621 17.4444 48.8379L47.4732 30.4518C48.3695 29.9026 48.9289 28.8346 48.9289 27.6723C48.9289 26.5101 48.3695 25.442 47.4732 24.8928L17.4444 6.50673C16.5892 5.98247 15.5558 6.01021 14.723 6.57979C13.8903 7.14937 13.3805 8.17704 13.3806 9.2862Z" stroke="url(#paint0_linear_772_1821)" stroke-width="1.5" stroke-linecap="round" stroke-linejoin="round"/>
</g>
<g filter="url(#filter1_d_772_1821)">
<path fill-rule="evenodd" clip-rule="evenodd" d="M12.2082 45.4207L48.6377 40.4115C49.7365 40.2605 50.6851 39.6156 51.136 38.713C51.5868 37.8104 51.4735 36.7829 50.8376 36.007L28.5324 8.76267C27.8662 7.94954 26.7319 7.54089 25.5805 7.69922C24.4291 7.85754 23.4472 8.55718 23.0252 9.51992L8.90108 41.7734C8.49821 42.6921 8.66646 43.712 9.34417 44.4595C10.0219 45.2069 11.1094 45.5719 12.2082 45.4207Z" stroke="url(#paint1_linear_772_1821)" stroke-width="1.5" stroke-linecap="round" stroke-linejoin="round"/>
</g>
</g>
<defs>
<filter id="filter0_d_772_1821" x="5.07947" y="2.44263" width="52.1519" height="58.4593" filterUnits="userSpaceOnUse" color-interpolation-filters="sRGB">
<feFlood flood-opacity="0" result="BackgroundImageFix"/>
<feColorMatrix in="SourceAlpha" type="matrix" values="0 0 0 0 0 0 0 0 0 0 0 0 0 0 0 0 0 0 127 0" result="hardAlpha"/>
<feOffset dy="4"/>
<feGaussianBlur stdDeviation="2"/>
<feColorMatrix type="matrix" values="0 0 0 0 0 0 0 0 0 0 0 0 0 0 0 0 0 0 0.25 0"/>
<feBlend mode="normal" in2="BackgroundImageFix" result="effect1_dropShadow_772_1821"/>
<feBlend mode="normal" in="SourceGraphic" in2="effect1_dropShadow_772_1821" result="shape"/>
</filter>
<filter id="filter1_d_772_1821" x="-4" y="0" width="64.0033" height="58.614" filterUnits="userSpaceOnUse" color-interpolation-filters="sRGB">
<feFlood flood-opacity="0" result="BackgroundImageFix"/>
<feColorMatrix in="SourceAlpha" type="matrix" values="0 0 0 0 0 0 0 0 0 0 0 0 0 0 0 0 0 0 127 0" result="hardAlpha"/>
<feOffset dy="4"/>
<feGaussianBlur stdDeviation="2"/>
<feColorMatrix type="matrix" values="0 0 0 0 0 0 0 0 0 0 0 0 0 0 0 0 0 0 0.25 0"/>
<feBlend mode="normal" in2="BackgroundImageFix" result="effect1_dropShadow_772_1821"/>
<feBlend mode="normal" in="SourceGraphic" in2="effect1_dropShadow_772_1821" result="shape"/>
</filter>
<linearGradient id="paint0_linear_772_1821" x1="14.2831" y1="6.1322" x2="55.2841" y2="41.0114" gradientUnits="userSpaceOnUse">
<stop stop-color="#0FEFFD"/>
<stop offset="0.515718" stop-color="#FF00F5"/>
<stop offset="0.776042" stop-color="#0FEFFD" stop-opacity="0"/>
</linearGradient>
<linearGradient id="paint1_linear_772_1821" x1="8.96069" y1="44.9563" x2="37.9295" y2="-0.413868" gradientUnits="userSpaceOnUse">
<stop stop-color="#0FEFFD"/>
<stop offset="0.515718" stop-color="#FF00F5"/>
<stop offset="0.776042" stop-color="#0FEFFD" stop-opacity="0"/>
</linearGradient>
<clipPath id="clip0_772_1821">
<rect width="56" height="56" fill="white"/>
</clipPath>
</defs>
</svg>
