<svg width="20" height="20" viewBox="0 0 20 20" fill="none" xmlns="http://www.w3.org/2000/svg">
<path d="M2 18V2" stroke="white" stroke-width="1.5" stroke-linecap="round" stroke-linejoin="round"/>
<path d="M18 2V18" stroke="white" stroke-width="1.5" stroke-linecap="round" stroke-linejoin="round"/>
<path d="M6.26672 2H13.7334V8.4H6.26672V2Z" stroke="white" stroke-width="1.5" stroke-linecap="round" stroke-linejoin="round"/>
<path d="M6.26672 11.6H13.7334V18H6.26672V11.6Z" stroke="white" stroke-width="1.5" stroke-linecap="round" stroke-linejoin="round"/>
<path d="M4.40003 3.60001C4.40003 3.65275 4.38439 3.70431 4.35509 3.74816C4.32579 3.79202 4.28414 3.82619 4.23541 3.84638C4.18669 3.86656 4.13307 3.87184 4.08134 3.86155C4.02961 3.85126 3.9821 3.82587 3.9448 3.78857C3.90751 3.75128 3.88211 3.70376 3.87182 3.65203C3.86153 3.60031 3.86681 3.54669 3.887 3.49796C3.90718 3.44923 3.94136 3.40759 3.98521 3.37828C4.02907 3.34898 4.08062 3.33334 4.13337 3.33334C4.20409 3.33334 4.27192 3.36144 4.32193 3.41145C4.37194 3.46146 4.40003 3.52929 4.40003 3.60001Z" stroke="white" stroke-width="1.5" stroke-linecap="round" stroke-linejoin="round"/>
<path d="M4.40003 7.86667C4.40003 7.91941 4.38439 7.97097 4.35509 8.01482C4.32579 8.05868 4.28414 8.09286 4.23541 8.11304C4.18669 8.13322 4.13307 8.1385 4.08134 8.12822C4.02961 8.11793 3.9821 8.09253 3.9448 8.05523C3.90751 8.01794 3.88211 7.97043 3.87182 7.9187C3.86153 7.86697 3.86681 7.81335 3.887 7.76462C3.90718 7.7159 3.94136 7.67425 3.98521 7.64495C4.02907 7.61565 4.08062 7.60001 4.13337 7.60001C4.20409 7.60001 4.27192 7.6281 4.32193 7.67811C4.37194 7.72812 4.40003 7.79595 4.40003 7.86667Z" stroke="white" stroke-width="1.5" stroke-linecap="round" stroke-linejoin="round"/>
<path d="M4.40003 12.1333C4.40003 12.1861 4.38439 12.2376 4.35509 12.2815C4.32579 12.3253 4.28414 12.3595 4.23541 12.3797C4.18669 12.3999 4.13307 12.4052 4.08134 12.3949C4.02961 12.3846 3.9821 12.3592 3.9448 12.3219C3.90751 12.2846 3.88211 12.2371 3.87182 12.1854C3.86153 12.1336 3.86681 12.08 3.887 12.0313C3.90718 11.9826 3.94136 11.9409 3.98521 11.9116C4.02907 11.8823 4.08062 11.8667 4.13337 11.8667C4.20409 11.8667 4.27192 11.8948 4.32193 11.9448C4.37194 11.9948 4.40003 12.0626 4.40003 12.1333Z" stroke="white" stroke-width="1.5" stroke-linecap="round" stroke-linejoin="round"/>
<path d="M4.40003 16.4C4.40003 16.4527 4.38439 16.5043 4.35509 16.5482C4.32579 16.592 4.28414 16.6262 4.23541 16.6464C4.18669 16.6665 4.13307 16.6718 4.08134 16.6615C4.02961 16.6513 3.9821 16.6259 3.9448 16.5886C3.90751 16.5513 3.88211 16.5037 3.87182 16.452C3.86153 16.4003 3.86681 16.3467 3.887 16.2979C3.90718 16.2492 3.94136 16.2076 3.98521 16.1783C4.02907 16.149 4.08062 16.1333 4.13337 16.1333C4.20409 16.1333 4.27192 16.1614 4.32193 16.2114C4.37194 16.2614 4.40003 16.3293 4.40003 16.4Z" stroke="white" stroke-width="1.5" stroke-linecap="round" stroke-linejoin="round"/>
<path d="M16.1333 3.60001C16.1333 3.65275 16.1177 3.70431 16.0884 3.74816C16.0591 3.79202 16.0174 3.82619 15.9687 3.84638C15.92 3.86656 15.8663 3.87184 15.8146 3.86155C15.7629 3.85126 15.7154 3.82587 15.6781 3.78857C15.6408 3.75128 15.6154 3.70376 15.6051 3.65203C15.5948 3.60031 15.6001 3.54669 15.6203 3.49796C15.6405 3.44923 15.6746 3.40759 15.7185 3.37828C15.7623 3.34898 15.8139 3.33334 15.8666 3.33334C15.9374 3.33334 16.0052 3.36144 16.0552 3.41145C16.1052 3.46146 16.1333 3.52929 16.1333 3.60001Z" stroke="white" stroke-width="1.5" stroke-linecap="round" stroke-linejoin="round"/>
<path d="M16.1333 7.86667C16.1333 7.91941 16.1177 7.97097 16.0884 8.01482C16.0591 8.05868 16.0174 8.09286 15.9687 8.11304C15.92 8.13322 15.8663 8.1385 15.8146 8.12822C15.7629 8.11793 15.7154 8.09253 15.6781 8.05523C15.6408 8.01794 15.6154 7.97043 15.6051 7.9187C15.5948 7.86697 15.6001 7.81335 15.6203 7.76462C15.6405 7.7159 15.6746 7.67425 15.7185 7.64495C15.7623 7.61565 15.8139 7.60001 15.8666 7.60001C15.9374 7.60001 16.0052 7.6281 16.0552 7.67811C16.1052 7.72812 16.1333 7.79595 16.1333 7.86667Z" stroke="white" stroke-width="1.5" stroke-linecap="round" stroke-linejoin="round"/>
<path d="M16.1333 12.1333C16.1333 12.1861 16.1177 12.2376 16.0884 12.2815C16.0591 12.3253 16.0174 12.3595 15.9687 12.3797C15.92 12.3999 15.8663 12.4052 15.8146 12.3949C15.7629 12.3846 15.7154 12.3592 15.6781 12.3219C15.6408 12.2846 15.6154 12.2371 15.6051 12.1854C15.5948 12.1336 15.6001 12.08 15.6203 12.0313C15.6405 11.9826 15.6746 11.9409 15.7185 11.9116C15.7623 11.8823 15.8139 11.8667 15.8666 11.8667C15.9374 11.8667 16.0052 11.8948 16.0552 11.9448C16.1052 11.9948 16.1333 12.0626 16.1333 12.1333Z" stroke="white" stroke-width="1.5" stroke-linecap="round" stroke-linejoin="round"/>
<path d="M16.1333 16.4C16.1333 16.4527 16.1177 16.5043 16.0884 16.5482C16.0591 16.592 16.0174 16.6262 15.9687 16.6464C15.92 16.6665 15.8663 16.6718 15.8146 16.6615C15.7629 16.6513 15.7154 16.6259 15.6781 16.5886C15.6408 16.5513 15.6154 16.5037 15.6051 16.452C15.5948 16.4003 15.6001 16.3467 15.6203 16.2979C15.6405 16.2492 15.6746 16.2076 15.7185 16.1783C15.7623 16.149 15.8139 16.1333 15.8666 16.1333C15.9374 16.1333 16.0052 16.1614 16.0552 16.2114C16.1052 16.2614 16.1333 16.3293 16.1333 16.4Z" stroke="white" stroke-width="1.5" stroke-linecap="round" stroke-linejoin="round"/>
</svg>
